<svg xmlns="http://www.w3.org/2000/svg" width="1024" height="1024" viewBox="0 -262 1024 1024">
  <defs>
    <linearGradient id="bg" x1="0" y1="0" x2="1" y2="1">
      <stop offset="0" stop-color="#007A52"/>
      <stop offset="1" stop-color="#00482F"/>
    </linearGradient>
  </defs>

  <rect width="1024" height="500" fill="url(#bg)"/>

  <!-- faint decorative crescent, top-right -->
  <g fill="#FFFFFF" opacity="0.06">
    <circle cx="930" cy="70" r="180"/>
  </g>
  <circle cx="980" cy="40" r="180" fill="#005E40" opacity="0.5"/>

  <!-- Mosque mark (108-space paths scaled up), left -->
  <g transform="translate(-16,39) scale(4.2)" fill="#FFFFFF">
    <path d="M54,21.5a5.5,5.5 0,1 0,0 11a6.8,6.8 0,0 1,0 -11Z"/>
    <path d="M54,34C43,40 36,48 36,58h36C72,48 65,40 54,34Z"/>
    <path d="M30,62C37,59.5 46,59.5 52,63.5V79C46,75 37,75 30,77.5V62ZM78,62C71,59.5 62,59.5 56,63.5V79C62,75 71,75 78,77.5V62Z"/>
  </g>

  <!-- Wordmark + tagline -->
  <text x="372" y="262" font-family="'Helvetica Neue', Helvetica, Arial, sans-serif"
        font-size="140" font-weight="800" fill="#FFFFFF" letter-spacing="-3">Surau</text>
  <text x="378" y="320" font-family="'Helvetica Neue', Helvetica, Arial, sans-serif"
        font-size="36" font-weight="500" fill="#FFFFFF" opacity="0.9">Al-Qur'an · Murottal · Khatam</text>
  <text x="378" y="372" font-family="'Helvetica Neue', Helvetica, Arial, sans-serif"
        font-size="30" font-weight="400" fill="#CFF3E4" opacity="0.95">Tenang, cepat, tanpa iklan</text>
</svg>
