<svg xmlns="http://www.w3.org/2000/svg" width="512" height="512" viewBox="0 0 108 108">
  <rect width="108" height="108" fill="#006D4A"/>
  <!-- Crescent finial -->
  <path d="M54,21.5a5.5,5.5 0,1 0,0 11a6.8,6.8 0,0 1,0 -11Z" fill="#FFFFFF"/>
  <!-- Dome -->
  <path d="M54,34C43,40 36,48 36,58h36C72,48 65,40 54,34Z" fill="#FFFFFF"/>
  <!-- Open book base -->
  <path d="M30,62C37,59.5 46,59.5 52,63.5V79C46,75 37,75 30,77.5V62ZM78,62C71,59.5 62,59.5 56,63.5V79C62,75 71,75 78,77.5V62Z" fill="#FFFFFF"/>
</svg>
